<svg id="Calque_1" data-name="Calque 1" xmlns="http://www.w3.org/2000/svg" viewBox="0 0 47.3 41.22"><defs><style>.cls-1{fill:none;}.cls-2{fill:#fff;}.cls-3{fill:#e30613;}.cls-4{fill:#f39200;}.cls-5{fill:#009fe3;}</style></defs><path class="cls-1" d="M25,24.88h0Z" transform="translate(-1.35 -4.39)"/><polygon class="cls-2" points="23.65 20.49 23.65 20.49 23.65 20.49 23.65 20.49"/><path class="cls-2" d="M25,24.87h0Z" transform="translate(-1.35 -4.39)"/><path class="cls-3" d="M13.17,18.1A13.66,13.66,0,0,1,25,24.88h0a13.6,13.6,0,0,1,.08-13.49c0-.05-.05-.11-.08-.16A13.65,13.65,0,0,0,13.13,4.39v0A13.64,13.64,0,0,0,13.17,18.1Z" transform="translate(-1.35 -4.39)"/><path class="cls-2" d="M25,24.88h0Z" transform="translate(-1.35 -4.39)"/><path class="cls-4" d="M25.09,11.38A13.65,13.65,0,0,1,25,24.87h0A13.6,13.6,0,0,1,30.1,20a13.74,13.74,0,0,1,6.58-1.71c0-.08.11-.15.15-.23a13.64,13.64,0,0,0,.06-13.49A13.69,13.69,0,0,0,25.09,11.38Z" transform="translate(-1.35 -4.39)"/><path class="cls-2" d="M25,24.9h0Z" transform="translate(-1.35 -4.39)"/><path class="cls-5" d="M36.68,18.26A13.64,13.64,0,0,1,25,24.88h0a13.61,13.61,0,0,1,12.06,7,13.67,13.67,0,0,0,11.56-6.63A13.68,13.68,0,0,0,36.68,18.26Z" transform="translate(-1.35 -4.39)"/><polygon class="cls-2" points="23.66 20.51 23.66 20.51 23.66 20.51 23.66 20.51"/><path class="cls-3" d="M37.09,31.87h-.33A13.66,13.66,0,0,1,25,24.9h0a13.67,13.67,0,0,1-.1,13.9,13.69,13.69,0,0,0,12,6.81c.08-.12.16-.23.23-.36A13.65,13.65,0,0,0,37.09,31.87Z" transform="translate(-1.35 -4.39)"/><path class="cls-2" d="M25,24.88v0h0Z" transform="translate(-1.35 -4.39)"/><path class="cls-5" d="M13.35,31.72A13.65,13.65,0,0,1,25,24.9v0h0a13.51,13.51,0,0,1-6.83-1.8,13.65,13.65,0,0,1-5-5A13.57,13.57,0,0,0,1.35,24.94,13.66,13.66,0,0,0,13.35,31.72Z" transform="translate(-1.35 -4.39)"/><path class="cls-4" d="M20.06,43.59a13.66,13.66,0,0,0,4.85-4.79c0-.08-.1-.16-.14-.24A13.67,13.67,0,0,1,25,24.9h0a13.59,13.59,0,0,1-11.64,6.82c0,.06-.07.1-.1.16a13.67,13.67,0,0,0,.12,13.55A13.68,13.68,0,0,0,20.06,43.59Z" transform="translate(-1.35 -4.39)"/></svg>
