<svg xmlns="http://www.w3.org/2000/svg" xmlns:xlink="http://www.w3.org/1999/xlink" width="500" zoomAndPan="magnify" viewBox="0 0 375 374.999991" height="500" preserveAspectRatio="xMidYMid meet" version="1.0"><defs><g/></defs><rect x="-37.5" width="450" fill="#ffffff" y="-37.499999" height="449.999989" fill-opacity="1"/><rect x="-37.5" width="450" fill="#ffffff" y="-37.499999" height="449.999989" fill-opacity="1"/><rect x="-37.5" width="450" fill="#ffffff" y="-37.499999" height="449.999989" fill-opacity="1"/><g fill="#ff1616" fill-opacity="1"><g transform="translate(12.111533, 287.999981)"><g><path d="M 62.042969 -130.980469 L 62.042969 -176.363281 L 79.277344 -176.363281 L 79.277344 -218.875 L 55.722656 -218.875 C 30.160156 -218.875 16.085938 -202.5 16.085938 -178.371094 L 16.085938 -135.289062 C 16.085938 -125.808594 12.925781 -116.90625 0.289062 -116.90625 L 0.289062 -73.820312 C 12.925781 -73.820312 16.085938 -64.914062 16.085938 -55.722656 L 16.085938 -13.210938 C 16.085938 10.628906 30.160156 27 55.722656 27 L 79.277344 27 L 79.277344 -15.511719 L 62.042969 -15.511719 L 62.042969 -60.03125 C 62.042969 -70.371094 59.457031 -88.46875 43.660156 -95.363281 C 59.171875 -101.96875 62.042969 -120.351562 62.042969 -130.980469 Z M 62.042969 -130.980469 "/></g></g></g><g fill="#ff1616" fill-opacity="1"><g transform="translate(111.781898, 287.999981)"><g><path d="M 92.488281 -202.789062 L 14.363281 -202.789062 L 14.363281 0 L 63.191406 0 L 63.191406 -68.074219 L 71.234375 -68.074219 L 113.171875 0 L 165.449219 0 L 165.449219 -9.191406 L 122.363281 -72.957031 C 148.789062 -85.597656 161.714844 -111.445312 161.714844 -135.863281 C 161.714844 -169.179688 138.449219 -202.789062 92.488281 -202.789062 Z M 91.339844 -112.597656 L 63.191406 -112.597656 L 63.191406 -155.679688 L 91.339844 -155.679688 C 106.277344 -155.679688 113.746094 -144.480469 113.746094 -133.851562 C 113.746094 -123.511719 105.988281 -112.597656 91.339844 -112.597656 Z M 91.339844 -112.597656 "/></g></g></g><g fill="#ff1616" fill-opacity="1"><g transform="translate(286.420512, 287.999981)"><g><path d="M 23.265625 -218.296875 L -0.574219 -218.296875 L -0.574219 -176.074219 L 16.660156 -176.074219 L 16.660156 -130.980469 C 16.660156 -120.351562 19.246094 -103.117188 32.746094 -95.363281 C 19.246094 -87.605469 16.660156 -70.371094 16.660156 -60.03125 L 16.660156 -17.808594 L -0.574219 -17.808594 L -0.574219 24.703125 L 23.265625 24.703125 C 48.542969 24.703125 62.617188 8.328125 62.617188 -15.511719 L 62.617188 -55.722656 C 62.617188 -64.914062 66.0625 -73.820312 78.703125 -73.820312 L 78.703125 -116.90625 C 66.0625 -116.90625 62.617188 -125.808594 62.617188 -135.289062 L 62.617188 -177.796875 C 62.617188 -201.925781 48.542969 -218.296875 23.265625 -218.296875 Z M 23.265625 -218.296875 "/></g></g></g><g fill="#ff1616" fill-opacity="1"><g transform="translate(95.31853, 107.612059)"><g><path d="M 12.921875 -23.03125 C 12.066406 -23.570312 10.804688 -24.425781 9.140625 -25.59375 C 7.472656 -26.757812 6.0625 -27.800781 4.90625 -28.71875 L 4.90625 -29.109375 L 12.875 -29.109375 C 13.519531 -28.242188 14.773438 -26.804688 16.640625 -24.796875 L 17.734375 -23.5625 L 17.734375 -23.03125 Z M 12.921875 -23.03125 "/></g></g></g><g fill="#ff1616" fill-opacity="1"><g transform="translate(253.723699, 107.612059)"><g><path d="M 12.921875 -23.03125 C 12.066406 -23.570312 10.804688 -24.425781 9.140625 -25.59375 C 7.472656 -26.757812 6.0625 -27.800781 4.90625 -28.71875 L 4.90625 -29.109375 L 12.875 -29.109375 C 13.519531 -28.242188 14.773438 -26.804688 16.640625 -24.796875 L 17.734375 -23.5625 L 17.734375 -23.03125 Z M 12.921875 -23.03125 "/></g></g></g></svg>